<?xml version="1.0" encoding="utf-8"?>
<!-- Generator: Adobe Illustrator 18.1.1, SVG Export Plug-In . SVG Version: 6.00 Build 0)  -->
<svg version="1.2" baseProfile="tiny" id="Livello_1"
	 xmlns="http://www.w3.org/2000/svg" xmlns:xlink="http://www.w3.org/1999/xlink" x="0px" y="0px" viewBox="0 0 68.8 55.3"
	 xml:space="preserve">
<g>
	<path fill="#FFFFFF" d="M19.1,42.2v-2.7c-0.7,1.2-1.7,2.1-3.2,2.6c-1.5,0.5-2.9,0.8-4.4,0.8c-1.6,0-3-0.2-4.3-0.7
		c-1.2-0.5-2.2-1.1-3-1.9c-0.8-0.8-1.4-1.7-1.8-2.8c-0.4-1-0.6-2.1-0.6-3.2c0-1.4,0.2-2.6,0.7-3.6c0.5-1.1,1.2-2,2.1-2.7
		c0.9-0.8,1.9-1.4,3.1-1.8s2.5-0.8,3.8-0.9l7.6-0.9v-1.5c0-1.5-0.4-2.4-1.2-2.8c-0.8-0.4-1.8-0.6-3.1-0.6c-2.7,0-6.1,0.8-10,2.5
		l-1.1-4.9c0.6-0.3,1.4-0.7,2.3-1c0.9-0.3,1.9-0.7,3-1c1-0.3,2.1-0.5,3-0.7c1-0.2,1.9-0.3,2.7-0.3c1.9,0,3.4,0.2,4.7,0.6
		c1.3,0.4,2.3,1,3,1.9c0.8,0.8,1.3,1.9,1.6,3.1c0.3,1.2,0.5,2.6,0.5,4.3v18.6H19.1z M12.6,29.9c-1.9,0.2-3.2,0.7-4,1.4
		c-0.8,0.7-1.2,1.5-1.2,2.5c0,1.2,0.3,2.2,1,2.9c0.7,0.7,1.7,1,3.1,1c2.3,0,4.2-0.7,5.5-2.1c1.4-1.4,2.1-3.6,2.1-6.6L12.6,29.9z"/>
	<path fill="#FFFFFF" d="M53.8,39.5c0,2.7-0.3,5-1,6.9c-0.6,1.9-1.5,3.4-2.6,4.5c-1.1,1.1-2.3,1.9-3.7,2.4c-1.4,0.5-2.9,0.7-4.4,0.7
		c-0.7,0-1.5-0.1-2.3-0.2c-0.9-0.1-1.7-0.3-2.6-0.6c-0.9-0.2-1.8-0.5-2.7-0.9c-0.9-0.3-1.7-0.7-2.4-1.1l2-5.1
		c1.7,0.9,3.1,1.5,4.4,1.8c1.3,0.4,2.4,0.5,3.4,0.5s1.9-0.2,2.6-0.6c0.8-0.4,1.4-0.9,1.9-1.5c0.5-0.6,0.9-1.4,1.2-2.2
		c0.3-0.8,0.4-1.7,0.4-2.6c-0.7,0.5-1.5,0.8-2.4,0.9c-0.9,0.2-1.7,0.2-2.6,0.2c-2.2,0-4.1-0.4-5.8-1.2c-1.6-0.8-3-1.9-4.1-3.3
		c-1.1-1.4-1.9-2.9-2.4-4.6c-0.5-1.7-0.8-3.5-0.8-5.3c0-2.4,0.4-4.6,1.1-6.4c0.7-1.8,1.8-3.3,3-4.6c1.3-1.2,2.7-2.1,4.3-2.7
		c1.6-0.6,3.3-0.9,5-0.9c1.8,0,3.6,0.3,5.3,1c1.8,0.7,3.4,1.6,4.7,2.9V39.5z M48.1,20c-0.4-0.2-0.9-0.4-1.6-0.5
		c-0.7-0.1-1.5-0.2-2.4-0.2c-2.9,0-5.1,0.9-6.3,2.6c-1.3,1.7-1.9,3.9-1.9,6.6c0,1.3,0.2,2.5,0.6,3.6c0.4,1.1,0.9,2,1.6,2.8
		c0.7,0.8,1.5,1.4,2.4,1.8c0.9,0.4,1.9,0.6,2.9,0.6c0.8,0,1.6-0.1,2.5-0.4c0.9-0.3,1.6-0.7,2.2-1.2L48.1,20z"/>
	<path fill="#FFFFFF" d="M67.1,4.3c0,1-0.3,1.8-1,2.4c-0.6,0.6-1.4,1-2.4,1c-1,0-1.8-0.3-2.4-1c-0.6-0.6-1-1.4-1-2.3
		c0-1,0.3-1.8,1-2.4c0.6-0.6,1.4-1,2.4-1c1,0,1.8,0.3,2.4,1C66.8,2.6,67.1,3.4,67.1,4.3z M60.9,42.2v-27l5.7-1.4v28.4H60.9z"/>
</g>
</svg>
